<svg width="24" height="24" viewBox="0 0 24 24" fill="none" xmlns="http://www.w3.org/2000/svg">
<g clip-path="url(#clip0_5_19)">
<path d="M22.0051 10.3635C18.7383 10.3618 15.471 10.3631 12.2042 10.3635C12.2046 11.7178 12.2025 13.0728 12.205 14.4271H17.8806C17.6525 15.7389 16.8994 16.901 15.7953 17.6452C15.1074 18.1075 14.317 18.4076 13.5025 18.5503C12.6817 18.69 11.8342 18.7082 11.0163 18.5427C10.1824 18.3738 9.39285 18.0328 8.69816 17.5415C7.58537 16.7535 6.74991 15.6342 6.311 14.3433C5.86735 13.0398 5.86396 11.5895 6.31312 10.2878C6.6255 9.36581 7.14212 8.52633 7.8244 7.83202C8.66556 6.97139 9.75775 6.3563 10.9355 6.10441C11.9488 5.88845 13.0003 5.93125 13.9927 6.22887C14.8341 6.48742 15.6033 6.93915 16.2389 7.54797C16.8782 6.9117 17.5157 6.27121 18.1549 5.63325C18.4902 5.29035 18.8424 4.96185 19.1667 4.60879C18.1968 3.71133 17.0589 2.98871 15.8156 2.53278C13.577 1.70856 11.0531 1.6912 8.79975 2.47098C6.26105 3.34049 4.09868 5.23955 2.89981 7.63941C2.48232 8.46759 2.1779 9.34808 1.99473 10.2573C1.53415 12.5191 1.85503 14.9308 2.89854 16.9916C3.58005 18.3411 4.54511 19.5274 5.72765 20.4693C6.84443 21.3592 8.13303 22.0087 9.51264 22.3772C11.2474 22.8429 13.0936 22.8323 14.8407 22.4348C16.4188 22.0716 17.9123 21.3172 19.1049 20.2165C20.3651 19.0583 21.2639 17.5326 21.7397 15.8926C22.2591 14.1041 22.3306 12.1944 22.0051 10.364" fill="#323232"/>
</g>
<defs>
<clipPath id="clip0_5_19">
<rect width="24" height="24" fill="white"/>
</clipPath>
</defs>
</svg>
